<?xml version="1.0" encoding="utf-8"?>
<!-- Generator: Adobe Illustrator 19.0.0, SVG Export Plug-In . SVG Version: 6.00 Build 0)  -->
<svg version="1.1" id="Layer_1" xmlns="http://www.w3.org/2000/svg" xmlns:xlink="http://www.w3.org/1999/xlink" x="0px" y="0px"
	 viewBox="-255 334 100 100" style="enable-background:new -255 334 100 100;" xml:space="preserve">
<path d="M-167.5,426.5h-74c-2.8,0-5-2.2-5-5v-2c0-2.8,2.2-5,5-5h74c2.8,0,5,2.2,5,5v2C-162.5,424.3-164.7,426.5-167.5,426.5z
	 M-167.5,402.5h-74c-2.8,0-5-2.2-5-5v-2c0-2.8,2.2-5,5-5h74c2.8,0,5,2.2,5,5v2C-162.5,400.3-164.7,402.5-167.5,402.5z M-167.5,378.5
	h-74c-2.8,0-5-2.2-5-5v-2c0-2.8,2.2-5,5-5h74c2.8,0,5,2.2,5,5v2C-162.5,376.3-164.7,378.5-167.5,378.5z M-167.5,354.5h-74
	c-2.8,0-5-2.2-5-5v-2c0-2.8,2.2-5,5-5h74c2.8,0,5,2.2,5,5v2C-162.5,352.3-164.7,354.5-167.5,354.5z"/>
</svg>
