<?xml version="1.0" encoding="utf-8"?>
<!-- Generator: Adobe Illustrator 19.0.0, SVG Export Plug-In . SVG Version: 6.00 Build 0)  -->
<svg version="1.1" id="Layer_1" xmlns="http://www.w3.org/2000/svg" xmlns:xlink="http://www.w3.org/1999/xlink" x="0px" y="0px"
	 viewBox="-255 334 100 100" style="enable-background:new -255 334 100 100;" xml:space="preserve">
<path d="M-167.5,426.5h-12c-2.8,0-5-2.2-5-5v-12c0-2.8,2.2-5,5-5h12c2.8,0,5,2.2,5,5v12C-162.5,424.3-164.7,426.5-167.5,426.5z
	 M-167.5,395.5h-12c-2.8,0-5-2.2-5-5v-12c0-2.8,2.2-5,5-5h12c2.8,0,5,2.2,5,5v12C-162.5,393.3-164.7,395.5-167.5,395.5z
	 M-167.5,364.5h-12c-2.8,0-5-2.2-5-5v-12c0-2.8,2.2-5,5-5h12c2.8,0,5,2.2,5,5v12C-162.5,362.3-164.7,364.5-167.5,364.5z
	 M-198.5,426.5h-12c-2.8,0-5-2.2-5-5v-12c0-2.8,2.2-5,5-5h12c2.8,0,5,2.2,5,5v12C-193.5,424.3-195.7,426.5-198.5,426.5z
	 M-198.5,395.5h-12c-2.8,0-5-2.2-5-5v-12c0-2.8,2.2-5,5-5h12c2.8,0,5,2.2,5,5v12C-193.5,393.3-195.7,395.5-198.5,395.5z
	 M-198.5,364.5h-12c-2.8,0-5-2.2-5-5v-12c0-2.8,2.2-5,5-5h12c2.8,0,5,2.2,5,5v12C-193.5,362.3-195.7,364.5-198.5,364.5z
	 M-229.5,426.5h-12c-2.8,0-5-2.2-5-5v-12c0-2.8,2.2-5,5-5h12c2.8,0,5,2.2,5,5v12C-224.5,424.3-226.7,426.5-229.5,426.5z
	 M-229.5,395.5h-12c-2.8,0-5-2.2-5-5v-12c0-2.8,2.2-5,5-5h12c2.8,0,5,2.2,5,5v12C-224.5,393.3-226.7,395.5-229.5,395.5z
	 M-229.5,364.5h-12c-2.8,0-5-2.2-5-5v-12c0-2.8,2.2-5,5-5h12c2.8,0,5,2.2,5,5v12C-224.5,362.3-226.7,364.5-229.5,364.5z"/>
</svg>
