<?xml version="1.0" encoding="utf-8"?>
<!-- Generator: Adobe Illustrator 26.5.0, SVG Export Plug-In . SVG Version: 6.00 Build 0)  -->
<svg version="1.1" id="logo" xmlns="http://www.w3.org/2000/svg" xmlns:xlink="http://www.w3.org/1999/xlink" x="0px" y="0px"
	 width="18px" height="18px" viewBox="0 0 18 18" enable-background="new 0 0 18 18" xml:space="preserve">
<g>
	<path fill="#CB2029" d="M12,3C9.7,4,8,6.3,8,9s1.6,5,4,6c-1-1.4-1.7-3.6-1.7-6C10.3,6.6,11,4.4,12,3z"/>
	<path fill="#CB2029" d="M6.6,9c0-3.8,1.5-7.1,3.7-9C6.7,1.6,4.1,5,4.1,9s2.5,7.4,6.2,9C8.1,16.1,6.6,12.8,6.6,9z"/>
	<path fill="#CB2029" d="M13.9,6.1c-1.4,0.5-2.4,1.6-2.4,2.9c0,1.3,1,2.4,2.4,2.9V6.1z"/>
</g>
</svg>
