<?xml version="1.0" encoding="utf-8"?>
<!-- Generator: Adobe Illustrator 26.5.0, SVG Export Plug-In . SVG Version: 6.00 Build 0)  -->
<svg version="1.1" id="Layer_1" xmlns="http://www.w3.org/2000/svg" xmlns:xlink="http://www.w3.org/1999/xlink" x="0px" y="0px"
	 width="751.7px" height="648.2px" viewBox="0 0 751.7 648.2" enable-background="new 0 0 751.7 648.2" xml:space="preserve">
<g id="ground">
	<g>
		<path d="M54.7,206c-0.4,0-0.8-0.1-1-0.4s-0.4-0.6-0.4-1c0-0.4,0.1-0.7,0.4-1c0.3-0.3,0.6-0.4,1-0.4c0.4,0,0.7,0.1,1,0.4
			c0.3,0.3,0.4,0.6,0.4,1c0,0.4-0.1,0.7-0.4,1S55.1,206,54.7,206z M53.3,226.1v-18.2H56v18.2H53.3z"/>
		<path d="M63.5,226.3c-0.7,0-1.4-0.2-2-0.4s-1.2-0.6-1.7-1c-0.5-0.4-0.9-0.9-1.1-1.4l2.3-1c0.1,0.2,0.3,0.5,0.6,0.7
			c0.3,0.2,0.6,0.4,1,0.6s0.8,0.2,1.2,0.2c0.4,0,0.8-0.1,1.1-0.2c0.4-0.1,0.6-0.3,0.9-0.5c0.2-0.2,0.3-0.5,0.3-0.9
			c0-0.4-0.1-0.7-0.4-0.9c-0.3-0.2-0.6-0.4-1-0.5s-0.8-0.2-1.1-0.3c-0.8-0.2-1.6-0.5-2.3-0.8c-0.7-0.3-1.3-0.8-1.7-1.3
			c-0.4-0.5-0.6-1.2-0.6-1.9c0-0.8,0.2-1.6,0.7-2.2c0.5-0.6,1-1.1,1.8-1.4c0.7-0.3,1.5-0.5,2.3-0.5c1,0,2,0.2,2.9,0.7
			c0.9,0.4,1.5,1,2,1.8l-2.1,1.3c-0.1-0.3-0.3-0.5-0.6-0.7c-0.3-0.2-0.6-0.4-0.9-0.5c-0.3-0.1-0.7-0.2-1-0.2c-0.4,0-0.9,0-1.2,0.1
			c-0.4,0.1-0.7,0.3-0.9,0.6c-0.2,0.3-0.3,0.6-0.3,1c0,0.4,0.1,0.7,0.4,0.9c0.3,0.2,0.6,0.3,1,0.4c0.4,0.1,0.8,0.2,1.3,0.4
			c0.8,0.2,1.5,0.5,2.2,0.9c0.7,0.4,1.2,0.8,1.6,1.3c0.4,0.5,0.6,1.1,0.6,1.9c0,0.8-0.2,1.5-0.7,2.1c-0.5,0.6-1.1,1.1-1.9,1.4
			C65.2,226.2,64.3,226.4,63.5,226.3z"/>
		<path d="M77.7,215.8h-2.7l0,10.3h-2.7l0-10.3h-2.1v-2.7h2.1l0-4.1h2.7l0,4.1h2.7V215.8z"/>
		<path d="M89.8,213.1h2.7v13h-2.7l-0.1-1.9c-0.4,0.7-0.9,1.2-1.5,1.6c-0.6,0.4-1.4,0.6-2.3,0.6c-1,0-1.9-0.2-2.7-0.5
			c-0.8-0.4-1.6-0.9-2.2-1.5c-0.6-0.6-1.1-1.4-1.5-2.2s-0.5-1.7-0.5-2.7c0-0.9,0.2-1.8,0.5-2.6c0.3-0.8,0.8-1.5,1.4-2.2
			c0.6-0.6,1.3-1.1,2.1-1.4s1.7-0.5,2.6-0.5c0.9,0,1.8,0.2,2.5,0.6c0.7,0.4,1.3,1,1.8,1.6L89.8,213.1z M85.8,223.8
			c0.8,0,1.4-0.2,2-0.6s1-0.9,1.3-1.5c0.3-0.6,0.5-1.4,0.5-2.1c0-0.8-0.2-1.5-0.5-2.1c-0.3-0.6-0.8-1.2-1.3-1.5
			c-0.6-0.4-1.2-0.6-2-0.6c-0.8,0-1.4,0.2-2.1,0.6s-1.1,0.9-1.5,1.5c-0.4,0.6-0.5,1.4-0.5,2.1c0,0.8,0.2,1.5,0.6,2.1
			c0.4,0.6,0.9,1.1,1.5,1.5S85,223.8,85.8,223.8z"/>
		<path d="M106.8,217.9v8.2h-2.7v-7.5c0-0.6-0.1-1.1-0.4-1.6c-0.3-0.5-0.7-0.9-1.1-1.1s-1-0.4-1.6-0.4c-0.6,0-1.1,0.1-1.6,0.4
			s-0.9,0.7-1.1,1.1c-0.3,0.5-0.4,1-0.4,1.6v7.5h-2.7v-13h2.7v1.4c0.5-0.5,1-1,1.7-1.3c0.7-0.3,1.4-0.5,2.1-0.5c1,0,1.8,0.2,2.6,0.7
			c0.8,0.5,1.4,1.1,1.9,1.9C106.6,216.1,106.8,217,106.8,217.9z"/>
		<path d="M116.2,212.7c1.3,0,2.4,0.3,3.5,0.9s1.9,1.4,2.5,2.5c0.6,1,0.9,2.2,0.9,3.5c0,0.9-0.2,1.8-0.5,2.7
			c-0.4,0.8-0.8,1.6-1.5,2.2c-0.6,0.6-1.4,1.1-2.2,1.5c-0.8,0.4-1.7,0.5-2.7,0.5c-0.9,0-1.7-0.2-2.4-0.6c-0.7-0.4-1.2-1-1.7-1.6v1.9
			h-2.7v-19.5h2.7v8.4c0.4-0.7,1-1.2,1.7-1.6C114.5,212.9,115.3,212.7,116.2,212.7z M116.2,223.8c0.8,0,1.4-0.2,2.1-0.6
			s1.1-0.9,1.5-1.5c0.4-0.6,0.6-1.3,0.6-2.1c0-0.8-0.2-1.5-0.6-2.1c-0.4-0.6-0.9-1.2-1.5-1.5s-1.3-0.6-2.1-0.6c-0.8,0-1.4,0.2-2,0.6
			c-0.6,0.4-1,0.9-1.3,1.5c-0.3,0.6-0.5,1.4-0.5,2.1c0,0.8,0.2,1.5,0.5,2.1c0.3,0.6,0.8,1.2,1.3,1.5
			C114.8,223.6,115.5,223.8,116.2,223.8z"/>
		<path d="M124.4,221.2v-8.1h2.7v7.5c0,0.6,0.1,1.1,0.4,1.6c0.3,0.5,0.7,0.9,1.1,1.1s1,0.4,1.6,0.4c0.6,0,1.1-0.1,1.6-0.4
			c0.5-0.3,0.8-0.7,1.1-1.1c0.3-0.5,0.4-1,0.4-1.6v-7.5h2.7l0,13h-2.7l0-1.4c-0.4,0.5-1,1-1.7,1.3s-1.4,0.5-2.1,0.5
			c-1,0-1.8-0.2-2.6-0.7c-0.8-0.5-1.4-1.1-1.9-1.9C124.7,223,124.4,222.2,124.4,221.2z"/>
		<path d="M138.8,226.1v-19.5h2.7v19.5H138.8z"/>
		<path d="M59.5,250.1v-18.2H66c0.9,0,1.8,0.2,2.5,0.6s1.4,0.9,1.8,1.6c0.4,0.7,0.7,1.6,0.7,2.6c0,0.5-0.1,1-0.2,1.4
			c-0.2,0.5-0.4,0.9-0.7,1.2s-0.6,0.6-1,0.8c0.6,0.1,1,0.4,1.4,0.7c0.4,0.4,0.7,0.8,0.9,1.3c0.2,0.5,0.4,1,0.5,1.5
			c0.1,0.5,0.1,1,0.1,1.5c0,1-0.2,1.8-0.7,2.6c-0.5,0.8-1.1,1.4-1.9,1.8c-0.8,0.4-1.6,0.7-2.6,0.7H59.5z M62.2,239.1h3.5
			c0.7,0,1.3-0.2,1.8-0.6c0.5-0.4,0.8-1,0.8-1.8c0-0.8-0.3-1.4-0.8-1.8c-0.5-0.4-1.1-0.6-1.8-0.6h-3.5V239.1z M62.2,247.7h4.3
			c0.6,0,1.1-0.1,1.5-0.4s0.8-0.7,1.1-1.2c0.3-0.5,0.4-1,0.4-1.7c0-0.5-0.1-1-0.4-1.5s-0.6-0.9-1.1-1.2s-1-0.4-1.5-0.4h-4.3V247.7z"
			/>
		<path d="M79.6,250.4c-1.2,0-2.3-0.3-3.3-0.9c-1-0.6-1.8-1.4-2.4-2.5c-0.6-1-0.9-2.2-0.9-3.4c0-1,0.2-1.8,0.5-2.7s0.8-1.6,1.4-2.2
			c0.6-0.6,1.3-1.1,2.1-1.5c0.8-0.4,1.6-0.5,2.5-0.5c1.2,0,2.3,0.3,3.3,0.9c1,0.6,1.8,1.4,2.4,2.5s0.9,2.2,0.9,3.5
			c0,0.9-0.2,1.8-0.5,2.7c-0.3,0.8-0.8,1.5-1.4,2.2s-1.3,1.1-2.1,1.5C81.4,250.2,80.5,250.4,79.6,250.4z M79.6,247.7
			c0.7,0,1.4-0.2,1.9-0.6c0.6-0.4,1-0.9,1.4-1.5c0.3-0.6,0.5-1.3,0.5-2c0-0.8-0.2-1.4-0.5-2.1c-0.3-0.6-0.8-1.1-1.4-1.5
			c-0.6-0.4-1.2-0.6-1.9-0.6c-0.7,0-1.4,0.2-1.9,0.6c-0.6,0.4-1,0.9-1.4,1.5s-0.5,1.3-0.5,2.1c0,0.8,0.2,1.5,0.5,2.1
			c0.3,0.6,0.8,1.1,1.4,1.5C78.3,247.5,78.9,247.7,79.6,247.7z"/>
		<path d="M98.1,237.1h2.7v13.3c0,0.9-0.2,1.7-0.6,2.5s-0.9,1.4-1.5,2c-0.6,0.6-1.4,1-2.2,1.3s-1.7,0.5-2.6,0.5
			c-0.9,0-1.8-0.2-2.6-0.6c-0.8-0.4-1.6-0.9-2.2-1.6c-0.6-0.7-1.1-1.4-1.4-2.2l2.5-1.1c0.2,0.5,0.5,1,0.8,1.4s0.8,0.7,1.4,1
			s1,0.4,1.6,0.4c0.5,0,1.1-0.1,1.6-0.3c0.5-0.2,0.9-0.4,1.3-0.7c0.4-0.3,0.7-0.7,0.9-1.1c0.2-0.4,0.4-0.9,0.4-1.4v-2.2
			c-0.4,0.7-1,1.2-1.6,1.6c-0.7,0.4-1.4,0.6-2.3,0.6c-0.9,0-1.8-0.2-2.6-0.5c-0.8-0.4-1.5-0.8-2.1-1.5c-0.6-0.6-1.1-1.4-1.4-2.2
			c-0.3-0.8-0.5-1.7-0.5-2.7c0-0.9,0.2-1.8,0.5-2.7c0.3-0.8,0.8-1.6,1.4-2.2c0.6-0.6,1.3-1.1,2.1-1.5c0.8-0.4,1.7-0.5,2.6-0.5
			c0.9,0,1.7,0.2,2.3,0.6c0.7,0.4,1.2,0.9,1.6,1.6V237.1z M94.5,235.9c-0.8,0-1.5-0.2-2.2-0.6c-0.7-0.4-1.2-0.9-1.6-1.6
			c-0.4-0.7-0.6-1.4-0.6-2.2h1.7c0,0.5,0.1,0.9,0.4,1.3c0.2,0.4,0.6,0.7,0.9,0.9c0.4,0.2,0.8,0.3,1.3,0.3c0.5,0,0.9-0.1,1.3-0.3
			c0.4-0.2,0.7-0.5,0.9-0.9c0.2-0.4,0.4-0.8,0.4-1.3h1.7c0,0.8-0.2,1.5-0.6,2.2c-0.4,0.7-0.9,1.2-1.6,1.6S95.3,235.9,94.5,235.9z
			 M94.1,247.8c0.8,0,1.4-0.2,2-0.6c0.6-0.4,1-0.9,1.3-1.5c0.3-0.6,0.5-1.3,0.5-2.1c0-0.8-0.2-1.5-0.5-2.1s-0.8-1.1-1.3-1.5
			c-0.6-0.4-1.2-0.6-2-0.6c-0.7,0-1.4,0.2-2,0.6c-0.6,0.4-1.1,0.9-1.4,1.5c-0.4,0.6-0.5,1.4-0.5,2.1s0.2,1.5,0.5,2.1
			c0.4,0.6,0.8,1.2,1.4,1.5C92.8,247.6,93.4,247.8,94.1,247.8z"/>
		<path d="M113.8,237.1h2.7v13h-2.7l-0.1-1.9c-0.4,0.7-0.9,1.2-1.5,1.6c-0.6,0.4-1.4,0.6-2.3,0.6c-1,0-1.9-0.2-2.7-0.5
			c-0.8-0.4-1.6-0.9-2.2-1.5c-0.6-0.6-1.1-1.4-1.5-2.2s-0.5-1.7-0.5-2.7c0-0.9,0.2-1.8,0.5-2.6c0.3-0.8,0.8-1.5,1.4-2.2
			c0.6-0.6,1.3-1.1,2.1-1.4s1.7-0.5,2.6-0.5c0.9,0,1.8,0.2,2.5,0.6c0.7,0.4,1.3,1,1.8,1.6L113.8,237.1z M109.8,247.8
			c0.8,0,1.4-0.2,2-0.6s1-0.9,1.3-1.5c0.3-0.6,0.5-1.4,0.5-2.1c0-0.8-0.2-1.5-0.5-2.1c-0.3-0.6-0.8-1.2-1.3-1.5
			c-0.6-0.4-1.2-0.6-2-0.6c-0.8,0-1.4,0.2-2.1,0.6s-1.1,0.9-1.5,1.5c-0.4,0.6-0.5,1.4-0.5,2.1c0,0.8,0.2,1.5,0.6,2.1
			c0.4,0.6,0.9,1.1,1.5,1.5S109,247.8,109.8,247.8z"/>
		<path d="M129.7,239.8l-7.2,7.6h7.2v2.7h-11.1v-2.7l7.2-7.6h-7.2v-2.7h11.1V239.8z"/>
		<path d="M132.3,237.1h2.7v13h-2.7V237.1z"/>
	</g>
	<g>
		<path d="M587.7,191.6c-1.2,0-2.4-0.2-3.5-0.7c-1.1-0.5-2-1.2-2.9-2c-0.8-0.9-1.5-1.9-1.9-3c-0.5-1.1-0.7-2.4-0.7-3.7
			c0-1.3,0.2-2.5,0.7-3.7c0.5-1.1,1.1-2.1,1.9-3c0.8-0.9,1.8-1.5,2.9-2c1.1-0.5,2.2-0.7,3.5-0.7c1.5,0,2.8,0.3,4.1,1
			c1.2,0.7,2.3,1.6,3.1,2.7l-2.4,1.3c-0.6-0.7-1.3-1.3-2.1-1.7c-0.8-0.4-1.7-0.6-2.7-0.6c-0.9,0-1.7,0.2-2.4,0.5
			c-0.8,0.4-1.4,0.8-2,1.5c-0.6,0.6-1,1.3-1.3,2.1c-0.3,0.8-0.5,1.7-0.5,2.6c0,0.9,0.2,1.8,0.5,2.6c0.3,0.8,0.8,1.5,1.3,2.1
			c0.6,0.6,1.2,1.1,2,1.5s1.6,0.5,2.4,0.5c1,0,1.8-0.2,2.7-0.6c0.8-0.4,1.5-1,2.1-1.7l2.4,1.3c-0.8,1.1-1.8,2-3.1,2.7
			C590.5,191.2,589.2,191.6,587.7,191.6z M587.8,196.1c-0.6,0.2-1.2,0.1-1.7-0.2c-0.5-0.3-0.9-0.8-1-1.3l1.5-0.4
			c0.1,0.2,0.2,0.3,0.3,0.4c0.2,0.1,0.4,0.1,0.6,0.1c0.2-0.1,0.3-0.2,0.4-0.3c0.1-0.2,0.1-0.4,0.1-0.6c-0.1-0.2-0.2-0.3-0.3-0.4
			c-0.2-0.1-0.4-0.1-0.6-0.1l-1.5,0.1l1.7-3.1l1.3,0.8l-0.5,0.9c0.3,0.1,0.6,0.3,0.8,0.6c0.2,0.3,0.4,0.6,0.5,0.9
			c0.2,0.6,0.1,1.2-0.2,1.7C588.8,195.6,588.4,195.9,587.8,196.1z"/>
		<path d="M606.8,178.2h2.7v13h-2.7l-0.1-1.9c-0.4,0.7-0.9,1.2-1.5,1.6s-1.4,0.6-2.3,0.6c-1,0-1.9-0.2-2.7-0.5
			c-0.8-0.4-1.6-0.9-2.2-1.5c-0.6-0.6-1.1-1.4-1.5-2.2s-0.5-1.7-0.5-2.7c0-0.9,0.2-1.8,0.5-2.6c0.3-0.8,0.8-1.5,1.4-2.2
			c0.6-0.6,1.3-1.1,2.1-1.4s1.7-0.5,2.6-0.5c0.9,0,1.8,0.2,2.5,0.6c0.7,0.4,1.3,1,1.8,1.6L606.8,178.2z M602.8,189
			c0.8,0,1.4-0.2,2-0.6s1-0.9,1.3-1.5c0.3-0.6,0.5-1.4,0.5-2.1c0-0.8-0.2-1.5-0.5-2.1c-0.3-0.6-0.8-1.2-1.3-1.5
			c-0.6-0.4-1.2-0.6-2-0.6c-0.8,0-1.4,0.2-2.1,0.6c-0.6,0.4-1.1,0.9-1.5,1.5c-0.4,0.6-0.5,1.4-0.5,2.1c0,0.8,0.2,1.5,0.6,2.1
			c0.4,0.6,0.9,1.1,1.5,1.5C601.4,188.8,602,189,602.8,189z"/>
		<path d="M612.1,191.2v-13h2.7v1.4c0.4-0.5,1-1,1.7-1.3s1.4-0.5,2.1-0.5c0.9,0,1.8,0.2,2.6,0.7c0.8,0.4,1.4,1,1.9,1.8
			c0.5-0.7,1.1-1.3,1.8-1.8s1.6-0.7,2.5-0.7c1,0,1.8,0.2,2.6,0.7c0.8,0.5,1.4,1.1,1.9,1.9c0.5,0.8,0.7,1.7,0.7,2.6v8.2h-2.7v-7.5
			c0-0.6-0.1-1.1-0.4-1.6c-0.3-0.5-0.6-0.9-1.1-1.2c-0.5-0.3-1-0.4-1.6-0.4s-1.1,0.1-1.6,0.4s-0.8,0.7-1.1,1.1s-0.4,1-0.4,1.6v7.5
			H621v-7.5c0-0.6-0.1-1.1-0.4-1.6s-0.7-0.9-1.1-1.1s-1-0.4-1.6-0.4c-0.6,0-1.1,0.1-1.6,0.4c-0.5,0.3-0.8,0.7-1.1,1.2
			c-0.3,0.5-0.4,1-0.4,1.6v7.5H612.1z"/>
		<path d="M635.3,191.2v-19.5h2.7v19.5H635.3z"/>
		<path d="M641.1,178.2h2.7v13h-2.7V178.2z"/>
		<path d="M655.2,187.5l2.4,1.3c-0.6,0.8-1.3,1.5-2.2,2c-0.9,0.5-1.9,0.7-2.9,0.7c-1.2,0-2.3-0.3-3.3-0.9s-1.8-1.4-2.4-2.5
			c-0.6-1-0.9-2.2-0.9-3.4c0-1,0.2-1.8,0.5-2.7s0.8-1.6,1.4-2.2c0.6-0.6,1.3-1.1,2.1-1.5c0.8-0.4,1.6-0.5,2.5-0.5
			c1.1,0,2,0.2,2.9,0.7c0.9,0.5,1.7,1.2,2.2,2l-2.4,1.3c-0.4-0.4-0.8-0.8-1.3-1c-0.5-0.2-1-0.3-1.5-0.3c-0.7,0-1.4,0.2-1.9,0.6
			c-0.6,0.4-1,0.9-1.4,1.5s-0.5,1.3-0.5,2.1c0,0.7,0.2,1.4,0.5,2c0.3,0.6,0.8,1.1,1.4,1.5c0.6,0.4,1.2,0.6,1.9,0.6
			c0.5,0,1-0.1,1.5-0.4C654.5,188.3,654.9,187.9,655.2,187.5z"/>
		<path d="M669.8,178.2h2.7v13h-2.7l-0.1-1.9c-0.4,0.7-0.9,1.2-1.5,1.6c-0.6,0.4-1.4,0.6-2.3,0.6c-1,0-1.9-0.2-2.7-0.5
			c-0.8-0.4-1.6-0.9-2.2-1.5c-0.6-0.6-1.1-1.4-1.5-2.2s-0.5-1.7-0.5-2.7c0-0.9,0.2-1.8,0.5-2.6c0.3-0.8,0.8-1.5,1.4-2.2
			c0.6-0.6,1.3-1.1,2.1-1.4s1.7-0.5,2.6-0.5c0.9,0,1.8,0.2,2.5,0.6c0.7,0.4,1.3,1,1.8,1.6L669.8,178.2z M665.7,189
			c0.8,0,1.4-0.2,2-0.6c0.6-0.4,1-0.9,1.3-1.5c0.3-0.6,0.5-1.4,0.5-2.1c0-0.8-0.2-1.5-0.5-2.1c-0.3-0.6-0.8-1.2-1.3-1.5
			c-0.6-0.4-1.2-0.6-2-0.6c-0.8,0-1.4,0.2-2.1,0.6s-1.1,0.9-1.5,1.5c-0.4,0.6-0.5,1.4-0.5,2.1c0,0.8,0.2,1.5,0.6,2.1
			c0.4,0.6,0.9,1.1,1.5,1.5S665,189,665.7,189z"/>
		<path d="M603.2,197v2.7h-5.8v15.5h-2.7v-15.5h-5.8V197H603.2z"/>
		<path d="M609.5,215.6c-1.2,0-2.3-0.3-3.3-0.9s-1.8-1.4-2.4-2.5c-0.6-1-0.9-2.2-0.9-3.4c0-1,0.2-1.8,0.5-2.7s0.8-1.6,1.4-2.2
			c0.6-0.6,1.3-1.1,2.1-1.5c0.8-0.4,1.6-0.5,2.5-0.5c1,0,1.9,0.2,2.7,0.6s1.5,1,2.1,1.7c0.6,0.7,1,1.6,1.3,2.5s0.4,1.9,0.2,3h-10
			c0.1,0.6,0.3,1.1,0.7,1.6c0.3,0.5,0.7,0.9,1.2,1.1c0.5,0.3,1.1,0.4,1.7,0.4c0.7,0,1.3-0.2,1.8-0.5c0.5-0.3,1-0.8,1.3-1.4l2.7,0.6
			c-0.5,1.2-1.3,2.1-2.4,2.8C612,215.2,610.8,215.6,609.5,215.6z M605.8,207.6h7.4c-0.1-0.6-0.3-1.2-0.7-1.7s-0.8-0.9-1.3-1.2
			c-0.5-0.3-1.1-0.4-1.7-0.4c-0.6,0-1.2,0.1-1.7,0.4c-0.5,0.3-1,0.7-1.3,1.2C606.1,206.4,605.9,207,605.8,207.6z"/>
		<path d="M620.8,221.7h-2.7v-19.5h2.7v1.9c0.4-0.7,1-1.2,1.7-1.6s1.5-0.6,2.4-0.6c0.9,0,1.8,0.2,2.7,0.5c0.8,0.4,1.6,0.8,2.2,1.5
			s1.1,1.4,1.5,2.2s0.5,1.7,0.5,2.7c0,0.9-0.2,1.8-0.5,2.7s-0.8,1.6-1.5,2.2s-1.3,1.1-2.2,1.5c-0.8,0.4-1.7,0.5-2.7,0.5
			c-0.9,0-1.7-0.2-2.4-0.6c-0.7-0.4-1.2-1-1.7-1.6V221.7z M624.8,204.5c-0.8,0-1.4,0.2-2,0.6s-1,0.9-1.3,1.5
			c-0.3,0.6-0.5,1.3-0.5,2.1s0.2,1.5,0.5,2.1c0.3,0.6,0.8,1.2,1.3,1.5s1.2,0.6,2,0.6c0.7,0,1.4-0.2,2.1-0.6s1.1-0.9,1.5-1.5
			c0.4-0.6,0.6-1.4,0.6-2.1c0-0.8-0.2-1.5-0.6-2.1c-0.4-0.6-0.9-1.2-1.5-1.5S625.5,204.5,624.8,204.5z"/>
		<path d="M639.5,215.6c-1.2,0-2.3-0.3-3.3-0.9c-1-0.6-1.8-1.4-2.4-2.5s-0.9-2.2-0.9-3.4c0-1,0.2-1.8,0.5-2.7s0.8-1.6,1.4-2.2
			s1.3-1.1,2.1-1.5c0.8-0.4,1.6-0.5,2.5-0.5c1,0,1.9,0.2,2.7,0.6s1.5,1,2.1,1.7s1,1.6,1.3,2.5s0.4,1.9,0.2,3h-10
			c0.1,0.6,0.3,1.1,0.7,1.6s0.7,0.9,1.2,1.1s1.1,0.4,1.7,0.4c0.7,0,1.3-0.2,1.8-0.5c0.5-0.3,1-0.8,1.3-1.4l2.7,0.6
			c-0.5,1.2-1.3,2.1-2.4,2.8C641.9,215.2,640.8,215.6,639.5,215.6z M635.8,207.6h7.4c-0.1-0.6-0.3-1.2-0.7-1.7
			c-0.4-0.5-0.8-0.9-1.3-1.2s-1.1-0.4-1.7-0.4c-0.6,0-1.2,0.1-1.7,0.4c-0.5,0.3-1,0.7-1.3,1.2C636.1,206.4,635.9,207,635.8,207.6z"
			/>
		<path d="M652,215.5c-0.7,0-1.4-0.2-2-0.4c-0.6-0.2-1.2-0.6-1.7-1c-0.5-0.4-0.9-0.9-1.1-1.4l2.3-1c0.1,0.2,0.3,0.5,0.6,0.7
			c0.3,0.2,0.6,0.4,1,0.6c0.4,0.1,0.8,0.2,1.2,0.2c0.4,0,0.8-0.1,1.1-0.2c0.4-0.1,0.6-0.3,0.9-0.5c0.2-0.2,0.3-0.5,0.3-0.9
			c0-0.4-0.1-0.7-0.4-0.9c-0.3-0.2-0.6-0.4-1-0.5s-0.8-0.2-1.1-0.3c-0.8-0.2-1.6-0.5-2.3-0.8c-0.7-0.3-1.3-0.8-1.7-1.3
			s-0.6-1.2-0.6-1.9c0-0.8,0.2-1.6,0.7-2.2c0.5-0.6,1-1.1,1.8-1.4c0.7-0.3,1.5-0.5,2.3-0.5c1,0,2,0.2,2.9,0.7c0.9,0.4,1.5,1,2,1.8
			l-2.1,1.3c-0.1-0.3-0.3-0.5-0.6-0.7c-0.3-0.2-0.6-0.4-0.9-0.5c-0.3-0.1-0.7-0.2-1-0.2c-0.4,0-0.9,0-1.2,0.1
			c-0.4,0.1-0.7,0.3-0.9,0.6s-0.3,0.6-0.3,1c0,0.4,0.1,0.7,0.4,0.9c0.3,0.2,0.6,0.3,1,0.4c0.4,0.1,0.8,0.2,1.3,0.4
			c0.8,0.2,1.5,0.5,2.2,0.9s1.2,0.8,1.6,1.3c0.4,0.5,0.6,1.1,0.6,1.9c0,0.8-0.2,1.5-0.7,2.1c-0.5,0.6-1.1,1.1-1.9,1.4
			C653.7,215.4,652.9,215.5,652,215.5z"/>
		<path d="M660.5,200.4c-0.4,0-0.8-0.1-1-0.4c-0.3-0.3-0.4-0.6-0.4-1c0-0.4,0.1-0.7,0.4-1s0.6-0.4,1-0.4c0.4,0,0.7,0.1,1,0.4
			s0.4,0.6,0.4,1c0,0.4-0.1,0.7-0.4,1C661.2,200.2,660.9,200.4,660.5,200.4z M659.1,202.2h2.7v13h-2.7V202.2z"/>
	</g>
	<g>
		<path d="M27.7,492.3l3.5-18.2h2.2l4.7,12.3l4.6-12.3h2.2l3.5,18.2h-2.8l-2.4-12.2L39,491.6h-1.8l-4.3-11.5l-2.4,12.2H27.7z"/>
		<path d="M60.4,479.3h2.7v13h-2.7l-0.1-1.9c-0.4,0.7-0.9,1.2-1.5,1.6c-0.6,0.4-1.4,0.6-2.3,0.6c-1,0-1.9-0.2-2.7-0.5
			c-0.8-0.4-1.6-0.9-2.2-1.5c-0.6-0.6-1.1-1.4-1.5-2.2c-0.4-0.8-0.5-1.7-0.5-2.7c0-0.9,0.2-1.8,0.5-2.6c0.3-0.8,0.8-1.5,1.4-2.2
			c0.6-0.6,1.3-1.1,2.1-1.4c0.8-0.4,1.7-0.5,2.6-0.5c0.9,0,1.8,0.2,2.5,0.6c0.7,0.4,1.3,1,1.8,1.6L60.4,479.3z M56.4,490.1
			c0.8,0,1.4-0.2,2-0.6s1-0.9,1.3-1.5s0.5-1.4,0.5-2.1c0-0.8-0.2-1.5-0.5-2.1c-0.3-0.6-0.8-1.2-1.3-1.5c-0.6-0.4-1.2-0.6-2-0.6
			c-0.8,0-1.4,0.2-2.1,0.6c-0.6,0.4-1.1,0.9-1.5,1.5c-0.4,0.6-0.5,1.4-0.5,2.1c0,0.8,0.2,1.5,0.6,2.1c0.4,0.6,0.9,1.1,1.5,1.5
			S55.6,490.1,56.4,490.1z"/>
		<path d="M65.7,492.3v-13h2.7v1.4c0.5-0.5,1-1,1.7-1.3c0.7-0.3,1.4-0.5,2.1-0.5c0.5,0,1,0.1,1.4,0.2l-1.1,2.7
			c-0.3-0.1-0.7-0.2-1-0.2c-0.6,0-1.1,0.1-1.6,0.4c-0.5,0.3-0.9,0.7-1.1,1.1c-0.3,0.5-0.4,1-0.4,1.6v7.5H65.7z"/>
		<path d="M75.2,492.3v-13h2.7v1.4c0.5-0.5,1-1,1.7-1.3c0.7-0.3,1.4-0.5,2.1-0.5c0.9,0,1.8,0.2,2.6,0.7c0.8,0.4,1.4,1,1.9,1.8
			c0.5-0.7,1.1-1.3,1.8-1.8s1.6-0.7,2.5-0.7c1,0,1.8,0.2,2.6,0.7c0.8,0.5,1.4,1.1,1.9,1.9c0.5,0.8,0.7,1.7,0.7,2.6v8.2H93v-7.5
			c0-0.6-0.1-1.1-0.4-1.6s-0.6-0.9-1.1-1.2c-0.5-0.3-1-0.4-1.6-0.4c-0.6,0-1.1,0.1-1.6,0.4c-0.5,0.3-0.8,0.7-1.1,1.1s-0.4,1-0.4,1.6
			v7.5h-2.7v-7.5c0-0.6-0.1-1.1-0.4-1.6s-0.7-0.9-1.1-1.1c-0.5-0.3-1-0.4-1.6-0.4c-0.6,0-1.1,0.1-1.6,0.4c-0.5,0.3-0.8,0.7-1.1,1.2
			c-0.3,0.5-0.4,1-0.4,1.6v7.5H75.2z"/>
		<path d="M108.2,479.3h2.7v13h-2.7l-0.1-1.9c-0.4,0.7-0.9,1.2-1.5,1.6c-0.6,0.4-1.4,0.6-2.3,0.6c-1,0-1.9-0.2-2.7-0.5
			c-0.8-0.4-1.6-0.9-2.2-1.5c-0.6-0.6-1.1-1.4-1.5-2.2c-0.4-0.8-0.5-1.7-0.5-2.7c0-0.9,0.2-1.8,0.5-2.6c0.3-0.8,0.8-1.5,1.4-2.2
			c0.6-0.6,1.3-1.1,2.1-1.4c0.8-0.4,1.7-0.5,2.6-0.5c0.9,0,1.8,0.2,2.5,0.6c0.7,0.4,1.3,1,1.8,1.6L108.2,479.3z M104.2,490.1
			c0.8,0,1.4-0.2,2-0.6s1-0.9,1.3-1.5s0.5-1.4,0.5-2.1c0-0.8-0.2-1.5-0.5-2.1c-0.3-0.6-0.8-1.2-1.3-1.5c-0.6-0.4-1.2-0.6-2-0.6
			c-0.8,0-1.4,0.2-2.1,0.6c-0.6,0.4-1.1,0.9-1.5,1.5c-0.4,0.6-0.5,1.4-0.5,2.1c0,0.8,0.2,1.5,0.6,2.1c0.4,0.6,0.9,1.1,1.5,1.5
			S103.4,490.1,104.2,490.1z"/>
		<path d="M113.5,492.3v-13h2.7v1.4c0.5-0.5,1-1,1.7-1.3c0.7-0.3,1.4-0.5,2.1-0.5c0.5,0,1,0.1,1.4,0.2l-1.1,2.7
			c-0.3-0.1-0.7-0.2-1-0.2c-0.6,0-1.1,0.1-1.6,0.4c-0.5,0.3-0.9,0.7-1.1,1.1c-0.3,0.5-0.4,1-0.4,1.6v7.5H113.5z"/>
		<path d="M132.4,479.3h2.7v13h-2.7l-0.1-1.9c-0.4,0.7-0.9,1.2-1.5,1.6c-0.6,0.4-1.4,0.6-2.3,0.6c-1,0-1.9-0.2-2.7-0.5
			c-0.8-0.4-1.6-0.9-2.2-1.5c-0.6-0.6-1.1-1.4-1.5-2.2c-0.4-0.8-0.5-1.7-0.5-2.7c0-0.9,0.2-1.8,0.5-2.6c0.3-0.8,0.8-1.5,1.4-2.2
			c0.6-0.6,1.3-1.1,2.1-1.4c0.8-0.4,1.7-0.5,2.6-0.5c0.9,0,1.8,0.2,2.5,0.6c0.7,0.4,1.3,1,1.8,1.6L132.4,479.3z M128.4,490.1
			c0.8,0,1.4-0.2,2-0.6s1-0.9,1.3-1.5s0.5-1.4,0.5-2.1c0-0.8-0.2-1.5-0.5-2.1c-0.3-0.6-0.8-1.2-1.3-1.5c-0.6-0.4-1.2-0.6-2-0.6
			c-0.8,0-1.4,0.2-2.1,0.6c-0.6,0.4-1.1,0.9-1.5,1.5c-0.4,0.6-0.5,1.4-0.5,2.1c0,0.8,0.2,1.5,0.6,2.1c0.4,0.6,0.9,1.1,1.5,1.5
			S127.6,490.1,128.4,490.1z"/>
		<path d="M47.4,516.3v-18.2h6c1.3,0,2.4,0.2,3.5,0.7c1.1,0.5,2.1,1.1,2.9,2c0.8,0.8,1.5,1.8,2,2.9c0.5,1.1,0.7,2.3,0.7,3.5
			c0,1.3-0.2,2.4-0.7,3.5c-0.5,1.1-1.1,2.1-2,2.9c-0.8,0.8-1.8,1.5-2.9,2c-1.1,0.5-2.3,0.7-3.5,0.7H47.4z M50.1,513.6h3.3
			c0.9,0,1.7-0.2,2.5-0.5c0.8-0.3,1.4-0.8,2-1.4c0.6-0.6,1.1-1.3,1.4-2c0.3-0.8,0.5-1.6,0.5-2.5c0-0.9-0.2-1.7-0.5-2.5
			c-0.3-0.8-0.8-1.5-1.4-2c-0.6-0.6-1.3-1-2-1.4c-0.8-0.3-1.6-0.5-2.5-0.5h-3.3V513.6z"/>
		<path d="M70.3,516.7c-1.2,0-2.3-0.3-3.3-0.9c-1-0.6-1.8-1.4-2.4-2.5c-0.6-1-0.9-2.2-0.9-3.4c0-1,0.2-1.8,0.5-2.7
			c0.3-0.8,0.8-1.6,1.4-2.2c0.6-0.6,1.3-1.1,2.1-1.5s1.6-0.5,2.5-0.5c1,0,1.9,0.2,2.7,0.6c0.8,0.4,1.5,1,2.1,1.7s1,1.6,1.3,2.5
			s0.4,1.9,0.2,3h-10c0.1,0.6,0.3,1.1,0.7,1.6c0.3,0.5,0.7,0.9,1.2,1.1s1.1,0.4,1.7,0.4c0.7,0,1.3-0.2,1.8-0.5
			c0.5-0.3,1-0.8,1.3-1.4l2.7,0.6c-0.5,1.2-1.3,2.1-2.4,2.8C72.8,516.3,71.6,516.7,70.3,516.7z M66.6,508.7H74
			c-0.1-0.6-0.3-1.2-0.7-1.7s-0.8-0.9-1.3-1.2s-1.1-0.4-1.7-0.4c-0.6,0-1.2,0.1-1.7,0.4s-1,0.7-1.3,1.2
			C66.9,507.5,66.7,508.1,66.6,508.7z"/>
		<path d="M90.6,508.2v8.2h-2.7v-7.5c0-0.6-0.1-1.1-0.4-1.6s-0.7-0.9-1.1-1.1c-0.5-0.3-1-0.4-1.6-0.4c-0.6,0-1.1,0.1-1.6,0.4
			c-0.5,0.3-0.9,0.7-1.1,1.1c-0.3,0.5-0.4,1-0.4,1.6v7.5h-2.7v-13h2.7v1.4c0.5-0.5,1-1,1.7-1.3c0.7-0.3,1.4-0.5,2.1-0.5
			c1,0,1.8,0.2,2.6,0.7s1.4,1.1,1.9,1.9C90.3,506.4,90.6,507.2,90.6,508.2z"/>
		<path d="M94.5,501.5c-0.4,0-0.8-0.1-1-0.4s-0.4-0.6-0.4-1c0-0.4,0.1-0.7,0.4-1c0.3-0.3,0.6-0.4,1-0.4c0.4,0,0.7,0.1,1,0.4
			c0.3,0.3,0.4,0.6,0.4,1c0,0.4-0.1,0.7-0.4,1S94.9,501.5,94.5,501.5z M93.2,503.3h2.7v13h-2.7V503.3z"/>
		<path d="M109.6,506l-7.2,7.6h7.2v2.7H98.5v-2.7l7.2-7.6h-7.2v-2.7h11.1V506z"/>
		<path d="M113.5,501.5c-0.4,0-0.8-0.1-1-0.4s-0.4-0.6-0.4-1c0-0.4,0.1-0.7,0.4-1c0.3-0.3,0.6-0.4,1-0.4c0.4,0,0.7,0.1,1,0.4
			c0.3,0.3,0.4,0.6,0.4,1c0,0.4-0.1,0.7-0.4,1S113.9,501.5,113.5,501.5z M112.2,503.3h2.7v13h-2.7V503.3z"/>
	</g>
	<g>
		<path fill="#A5D2A3" d="M382.5,546c-10-13.3-20.8-27-32.6-40.9c-15.4-18.2-30.7-34.9-45.5-50c-28.8-18.9-59.1-37.9-90.9-56.8
			c-35.3-21-69.7-40.2-103.1-57.9c-9.4,6.2-18.7,12.3-28.1,18.5l-12.9,29.6c14.5,13.1,43,39.2,70.5,67.5
			c10.3,10.6,21.1,22.2,33.3,37.1c8.3,10.1,13.2,16.1,17.4,22.7c7.5,11.7,17.7,32.6,18.9,65.9c-1,15.7-2,31.3-3,47l62.9,12.1
			l128.4-23.3c0.9-7.6,1.2-17.2-0.3-28.2C395,569.8,387.8,555,382.5,546z"/>
	</g>
	<g id="grenzen_00000103951176695023564650000010543709364069968317_">
		<path d="M651.2,648.2c-6.8,0-16.5-3.6-36-10.8c-4.2-1.6-9-3.3-14.2-5.2c-10.6-3.9-21.2-7.7-31.7-11.3l-50,6.1l-0.1,0l-64.3-21.9
			l-183.4,33.3l-0.1,0L208.1,626l3.1-47.4c-0.9-25.5-7.3-47.6-18.9-65.6c-4.2-6.6-9.2-12.7-17.4-22.7c-12.8-15.6-24-27.5-33.3-37.1
			c-20.1-20.7-44.5-44-70.5-67.4l-0.3-0.2l13.1-30l0.1-0.1l55.2-36.3l117.8-266l0.5,0.8c6.8,11,26.1,36.5,41.5,57.1
			c7.8,10.4,14.6,19.4,18.7,25.1l-0.8,0.6c-4.1-5.7-10.9-14.7-18.7-25.1c-15.1-20.1-33.8-45-41.1-56.4L140.1,319.7l-0.1,0.1
			l-55.2,36.3L72,385.2c25.9,23.4,50.2,46.6,70.2,67.2c9.3,9.6,20.6,21.5,33.4,37.2c8.2,10.1,13.2,16.1,17.5,22.8
			c11.7,18.2,18.1,40.4,19,66.2l-3,46.6l62.4,12L455,603.8l64.4,22l50-6.1l0.1,0c10.5,3.7,21.2,7.5,31.8,11.4
			c5.3,1.9,10,3.7,14.2,5.3c26.8,9.9,34.9,12.9,42.2,9.2c4.9-2.6,13.3-10.8,14.1-36.7l-3.8-25.6l-16.7-43.1l-37.1-77.3l-25-56
			l-31-37c-38.2-25-74.7-53.3-108.4-84.1c-30.9-28.3-60-59.2-86.5-91.8l0.8-0.6c26.4,32.5,55.4,63.4,86.3,91.7
			C484.4,315.7,520.8,344,559,369l0.1,0.1l31.1,37.3l25,56.1l37.1,77.3l16.7,43.3l3.8,25.8c-0.8,25.2-8.4,34.4-14.7,37.7
			C656.1,647.6,653.9,648.2,651.2,648.2z"/>
	</g>
	<g>
		<g>
			<path fill="#010101" d="M642.7,88l-24.6-48.8c-0.6-1.3-2.7-1.3-3.4,0L590,88c-0.4,0.7-0.2,1.6,0.4,2.2c0.6,0.6,1.5,0.7,2.2,0.3
				l23.7-12.8l23.7,12.8c0.3,0.2,0.6,0.2,0.9,0.2c0.5,0,1-0.2,1.3-0.5C642.9,89.6,643.1,88.7,642.7,88z M617.3,73.8
				c-0.3-0.2-0.6-0.2-0.9-0.2V44.2l20.2,40.1L617.3,73.8z"/>
		</g>
		<g>
			<path fill="#010101" d="M612.6,19.7c0-1.4,0-2.6,0-3.7c0.6,1,1.2,2,1.6,2.7l6.2,9.8h3.9V8.2h-4.1v8.7c0,1.2,0,2.3,0,3.4
				c-0.4-0.8-0.9-1.5-1.4-2.3l-6.2-9.8h-4.1v20.4h4.1V19.7z"/>
		</g>
	</g>
	<g>
		<path d="M546.6,188.3c-0.8,0-1.3-0.1-1.9-0.1c-4.1-0.2-8.2-0.2-12.4-0.5c-4-0.3-6.3-4.3-4.7-7.8c1-2.1,2.7-3.4,5.1-3.3
			c9.3,0.3,18.6,0.6,27.9,1c3.1,0.1,5.2,2.8,5.1,6.2c-0.2,6.5-0.5,13-0.7,19.5c-0.1,2.4-0.2,4.8-0.3,7.1c-0.1,3.4-2.6,5.8-5.8,5.7
			c-3.3-0.1-5.5-2.7-5.4-6.2c0.2-4.4,0.3-8.9,0.2-13.5c-0.3,0.3-0.7,0.6-1,0.9c-5.8,5.4-11.6,10.7-17.3,16.1c-3.3,3.2-8,1.4-9-2.2
			c-0.7-2.5,0.4-4.4,2.2-6.1c5.6-5.2,11.2-10.4,16.8-15.6C545.8,189.2,546.1,188.8,546.6,188.3z"/>
	</g>
	<g>
		<path d="M117.7,552.8c0.8,0,1.3,0.1,1.9,0.1c4.1,0.2,8.2,0.2,12.4,0.5c4,0.3,6.3,4.3,4.7,7.8c-1,2.1-2.7,3.4-5.1,3.3
			c-9.3-0.3-18.6-0.6-27.9-1c-3.1-0.1-5.2-2.8-5.1-6.2c0.2-6.5,0.5-13,0.7-19.5c0.1-2.4,0.2-4.8,0.3-7.1c0.1-3.4,2.6-5.8,5.8-5.7
			c3.3,0.1,5.5,2.7,5.4,6.2c-0.2,4.4-0.3,8.9-0.2,13.5c0.3-0.3,0.7-0.6,1-0.9c5.8-5.4,11.6-10.7,17.3-16.1c3.3-3.2,8-1.4,9,2.2
			c0.7,2.5-0.4,4.4-2.2,6.1c-5.6,5.2-11.2,10.4-16.8,15.6C118.5,551.9,118.2,552.3,117.7,552.8z"/>
	</g>
	<g>
		<path d="M113.1,172.7c0,0.8-0.1,1.3-0.1,1.9c-0.2,4.1-0.2,8.2-0.5,12.4c-0.3,4-4.3,6.3-7.8,4.7c-2.1-1-3.4-2.7-3.3-5.1
			c0.3-9.3,0.6-18.6,1-27.9c0.1-3.1,2.8-5.2,6.2-5.1c6.5,0.2,13,0.5,19.5,0.7c2.4,0.1,4.8,0.2,7.1,0.3c3.4,0.1,5.8,2.6,5.7,5.8
			c-0.1,3.3-2.7,5.5-6.2,5.4c-4.4-0.2-8.9-0.3-13.5-0.2c0.3,0.3,0.6,0.7,0.9,1c5.4,5.8,10.7,11.6,16.1,17.3c3.2,3.3,1.4,8-2.2,9
			c-2.5,0.7-4.4-0.4-6.1-2.2c-5.2-5.6-10.4-11.2-15.6-16.8C114.1,173.6,113.7,173.3,113.1,172.7z"/>
	</g>
	<g>
		<path d="M750.9,604.7l-5.3-6.8l-11.4-16c-0.8-1.7-76-174-90.2-208.4c-14.2-34.3-63-67.7-63.5-68l-104.6-76.6l0,0L408.3,153
			L286.3,0.6l0.8-0.6l122,152.3l67.4,75.7L581,304.6c0.5,0.3,49.5,33.8,63.8,68.4c14.2,34.3,88.5,204.7,90.2,208.4l11.3,15.9
			l5.3,6.8L750.9,604.7z"/>
	</g>
	<g>
		<path d="M412.8,218l12-13.6l2.2,1.9l-2.5,15.5l8.8-10l2,1.8l-12,13.7l-2.2-1.9l2.5-15.5l-8.8,10L412.8,218z"/>
		<path d="M428.5,225.3l5.4-6.1l2,1.8l-4.9,5.6c-0.4,0.4-0.6,0.9-0.7,1.5c-0.1,0.5-0.1,1.1,0.1,1.6c0.2,0.5,0.5,1,0.9,1.4
			c0.4,0.4,0.9,0.6,1.5,0.7c0.5,0.1,1.1,0.1,1.6-0.1c0.5-0.2,1-0.5,1.4-0.9l4.9-5.6l2,1.8l-8.6,9.8l-2-1.8l0.9-1.1
			c-0.7,0.1-1.4,0.1-2.1-0.1c-0.7-0.2-1.3-0.6-1.9-1.1c-0.7-0.6-1.2-1.4-1.5-2.3c-0.3-0.9-0.3-1.8-0.2-2.7
			C427.5,226.9,427.9,226.1,428.5,225.3z"/>
		<path d="M436,238.4l8.6-9.7l2,1.8l-0.9,1c0.7-0.1,1.4-0.1,2.1,0.1c0.7,0.2,1.3,0.6,1.9,1.1c0.4,0.3,0.7,0.7,1,1.1l-2.6,1.3
			c-0.2-0.3-0.4-0.6-0.6-0.8c-0.4-0.4-0.9-0.6-1.5-0.7c-0.5-0.1-1.1-0.1-1.6,0.1c-0.5,0.2-1,0.5-1.4,0.9l-5,5.6L436,238.4z"/>
		<path d="M451.7,235l2,1.8l-8.6,9.8l-2-1.8L451.7,235z M454,234.4c-0.3-0.3-0.5-0.6-0.5-1s0.1-0.7,0.4-1c0.3-0.3,0.6-0.5,1-0.5
			c0.4,0,0.7,0.1,1,0.4c0.3,0.3,0.5,0.6,0.5,1c0,0.4-0.1,0.7-0.4,1c-0.3,0.3-0.6,0.5-1,0.5S454.3,234.7,454,234.4z"/>
		<path d="M452.1,252.7l12-13.7l4.8,4.3c0.7,0.6,1.2,1.3,1.5,2.1c0.3,0.8,0.4,1.6,0.3,2.4c-0.1,0.8-0.5,1.6-1.2,2.4
			c-0.3,0.4-0.7,0.7-1.1,0.9c-0.4,0.2-0.9,0.4-1.3,0.5c-0.4,0.1-0.9,0-1.3-0.1c0.3,0.5,0.5,1,0.5,1.5c0,0.5,0,1-0.2,1.5
			c-0.2,0.5-0.4,1-0.6,1.4c-0.3,0.4-0.6,0.8-0.9,1.2c-0.6,0.7-1.4,1.2-2.2,1.5c-0.9,0.3-1.7,0.3-2.6,0.1c-0.9-0.2-1.7-0.6-2.4-1.2
			L452.1,252.7z M455.7,252.7l3.2,2.8c0.4,0.4,0.9,0.6,1.4,0.7s1,0,1.6-0.1s1-0.5,1.4-1c0.4-0.4,0.6-0.9,0.7-1.4
			c0.1-0.5,0.1-1.1,0-1.6c-0.1-0.5-0.4-1-0.8-1.3l-3.2-2.8L455.7,252.7z M461.4,246.2l2.6,2.3c0.5,0.5,1.1,0.7,1.8,0.7
			c0.7,0,1.3-0.3,1.8-0.8c0.5-0.6,0.7-1.2,0.6-1.9s-0.4-1.2-1-1.7l-2.6-2.3L461.4,246.2z"/>
		<path d="M467,266.2c-0.9-0.8-1.5-1.7-1.8-2.9c-0.3-1.1-0.4-2.3-0.1-3.4c0.2-1.2,0.8-2.2,1.6-3.2c0.6-0.7,1.3-1.3,2.1-1.7
			c0.8-0.4,1.6-0.6,2.5-0.7c0.9-0.1,1.7,0,2.5,0.3s1.6,0.7,2.2,1.3c0.7,0.7,1.3,1.4,1.6,2.3s0.5,1.8,0.5,2.7c0,0.9-0.3,1.8-0.7,2.7
			s-1,1.7-1.8,2.4l-7.5-6.6c-0.3,0.5-0.5,1.1-0.6,1.6c-0.1,0.6,0,1.1,0.2,1.7c0.2,0.5,0.5,1,1,1.4c0.5,0.4,1.1,0.7,1.7,0.8
			s1.3,0.1,1.9-0.1l1.6,2.3c-1.2,0.5-2.4,0.7-3.6,0.6C469.1,267.6,468,267.1,467,266.2z M469.5,257.8l5.5,4.9
			c0.3-0.5,0.6-1.1,0.6-1.7c0.1-0.6,0-1.2-0.2-1.8c-0.2-0.6-0.5-1.1-1-1.5c-0.5-0.4-1-0.7-1.6-0.8c-0.6-0.1-1.2-0.1-1.8,0
			C470.5,257.1,470,257.4,469.5,257.8z"/>
		<path d="M488.4,267.3l2.2,1.9l-18.2,9.9l-2.2-1.9l6.1-3.3l5.1-12.8l2.2,2l-3.8,9L488.4,267.3z"/>
		<path d="M493.2,289.3c-0.7-0.7-1.4-1.4-1.8-2.2c-0.5-0.8-0.8-1.7-0.9-2.6s0-1.7,0.3-2.5l2.5,1c-0.2,0.4-0.2,0.9-0.1,1.4
			c0.1,0.5,0.3,1,0.6,1.6s0.7,1,1.2,1.4c0.5,0.5,1.1,0.8,1.7,1c0.6,0.2,1.2,0.3,1.7,0.3c0.5,0,1-0.3,1.4-0.7
			c0.4-0.4,0.5-0.9,0.5-1.4c-0.1-0.5-0.3-1.1-0.6-1.6c-0.3-0.6-0.7-1.1-1.1-1.6c-0.8-1-1.5-2-2-2.9c-0.5-1-0.7-1.9-0.7-2.8
			c0-0.9,0.4-1.8,1.2-2.7c0.7-0.8,1.6-1.3,2.6-1.5s2-0.1,3.1,0.2c1.1,0.3,2,0.9,2.9,1.7c0.7,0.6,1.3,1.4,1.8,2.2
			c0.5,0.8,0.8,1.7,0.9,2.6s0,1.8-0.3,2.6l-2.5-1c0.2-0.4,0.2-0.9,0.1-1.4c-0.1-0.5-0.3-1-0.6-1.6c-0.3-0.5-0.7-1-1.2-1.4
			c-0.5-0.5-1.1-0.8-1.7-1c-0.6-0.2-1.2-0.3-1.7-0.3s-1,0.3-1.3,0.7c-0.4,0.5-0.6,1-0.6,1.5c0,0.5,0.2,1,0.6,1.5
			c0.3,0.5,0.8,1.1,1.2,1.7c0.8,0.9,1.4,1.9,1.9,2.9c0.5,1,0.7,2,0.7,2.9c0,1-0.4,1.8-1.1,2.6c-0.7,0.8-1.6,1.3-2.6,1.5
			c-1,0.2-2,0.1-3.1-0.2C495.1,290.7,494.1,290.1,493.2,289.3z"/>
		<path d="M504.5,299.3c-0.9-0.8-1.5-1.7-1.8-2.9c-0.3-1.1-0.4-2.2-0.1-3.4c0.2-1.2,0.8-2.2,1.6-3.2c0.6-0.7,1.3-1.3,2.1-1.7
			c0.8-0.4,1.6-0.6,2.5-0.7c0.9-0.1,1.7,0,2.5,0.3c0.8,0.3,1.6,0.7,2.2,1.3c0.9,0.8,1.5,1.7,1.8,2.9c0.3,1.1,0.4,2.3,0.1,3.4
			c-0.2,1.2-0.8,2.2-1.6,3.2c-0.6,0.7-1.3,1.3-2.1,1.7c-0.8,0.4-1.6,0.6-2.5,0.7s-1.7,0-2.5-0.3
			C505.9,300.3,505.1,299.9,504.5,299.3z M506.2,297.2c0.5,0.5,1.1,0.8,1.8,0.9s1.4,0,2-0.2c0.7-0.2,1.2-0.7,1.7-1.2
			c0.5-0.6,0.8-1.2,1-1.9c0.2-0.7,0.2-1.4,0-2c-0.2-0.7-0.5-1.2-1.1-1.7c-0.5-0.5-1.1-0.8-1.8-0.8c-0.7-0.1-1.4,0-2,0.2
			c-0.7,0.3-1.2,0.7-1.7,1.2c-0.5,0.6-0.8,1.2-1,1.9c-0.2,0.7-0.1,1.4,0.1,2S505.7,296.8,506.2,297.2z"/>
		<path d="M519.3,312l-2.3-2.1l1.2-6.2l-3.2,0.5l-2,2.3l-2-1.8l12.9-14.6l2,1.8l-8.1,9.2l7.5-1.1l2.7,2.3l-6.8,1L519.3,312z"/>
		<path d="M536.5,309.8l2,1.8l-8.6,9.7l-2-1.8l1.2-1.5c-0.7,0.2-1.5,0.3-2.2,0.2c-0.8-0.1-1.5-0.5-2.1-1.1c-0.7-0.6-1.3-1.4-1.7-2.2
			s-0.6-1.7-0.7-2.6c-0.1-0.9,0.1-1.8,0.3-2.6s0.7-1.7,1.4-2.4c0.6-0.7,1.3-1.2,2.1-1.6c0.8-0.4,1.6-0.6,2.5-0.7s1.7,0.1,2.6,0.3
			c0.8,0.3,1.6,0.7,2.3,1.3c0.7,0.6,1.2,1.3,1.5,2.1c0.3,0.8,0.3,1.6,0.3,2.4L536.5,309.8z M526.4,315.1c0.6,0.5,1.2,0.8,1.9,0.9
			c0.7,0.1,1.3,0,2-0.3c0.7-0.3,1.2-0.7,1.8-1.3c0.5-0.6,0.9-1.2,1.1-1.9c0.2-0.7,0.2-1.4,0-2c-0.2-0.7-0.6-1.2-1.1-1.7
			c-0.6-0.5-1.2-0.8-1.9-0.9s-1.4-0.1-2.1,0.2s-1.3,0.7-1.8,1.2c-0.5,0.6-0.9,1.2-1,2c-0.1,0.7-0.1,1.4,0.1,2.1
			C525.5,314.1,525.9,314.7,526.4,315.1z"/>
		<path d="M540.3,330.4l-2.3-2.1l1.2-6.2l-3.2,0.5l-2,2.3l-2-1.8l12.9-14.6l2,1.8l-8.1,9.2l7.5-1.1l2.7,2.3l-6.8,1L540.3,330.4z"/>
	</g>
	<g>
		<path fill="#3F763C" d="M221.2,481.3h-3.8l-4.7-6.6l-0.8,1v5.6h-2.9v-16.8h2.9v6.6l5.6-6.6h3.8l-6.7,7.9L221.2,481.3z"/>
		<path fill="#3F763C" d="M227.2,481.7c-1.1,0-2.1-0.3-3-0.9c-0.9-0.6-1.6-1.3-2.2-2.3c-0.5-1-0.8-2-0.8-3.2c0-0.9,0.2-1.7,0.5-2.5
			s0.7-1.4,1.3-2s1.2-1,1.9-1.4s1.5-0.5,2.3-0.5c1.1,0,2.1,0.3,3,0.9c0.9,0.6,1.6,1.3,2.2,2.3s0.8,2,0.8,3.2c0,0.9-0.2,1.7-0.5,2.4
			s-0.7,1.4-1.3,2s-1.2,1-1.9,1.4C228.8,481.5,228,481.7,227.2,481.7z M227.2,478.7c0.6,0,1.1-0.2,1.6-0.5c0.5-0.3,0.8-0.7,1.1-1.2
			c0.3-0.5,0.4-1.1,0.4-1.7c0-0.6-0.1-1.2-0.4-1.7c-0.3-0.5-0.6-0.9-1.1-1.2c-0.5-0.3-1-0.5-1.5-0.5c-0.6,0-1.1,0.2-1.6,0.5
			c-0.5,0.3-0.8,0.7-1.1,1.2c-0.3,0.5-0.4,1.1-0.4,1.7c0,0.6,0.1,1.2,0.4,1.7c0.3,0.5,0.7,0.9,1.1,1.2
			C226.1,478.6,226.6,478.7,227.2,478.7z"/>
		<path fill="#3F763C" d="M235.1,481.3l0-12h2.9l0,1.1c0.4-0.4,0.9-0.8,1.5-1c0.6-0.3,1.2-0.4,1.8-0.4c0.4,0,0.9,0.1,1.3,0.2l-1.2,3
			c-0.3-0.1-0.6-0.2-0.9-0.2c-0.5,0-0.9,0.1-1.3,0.3c-0.4,0.2-0.7,0.5-0.9,0.9c-0.2,0.4-0.3,0.8-0.3,1.3v6.8H235.1z"/>
		<path fill="#3F763C" d="M243.6,476.9v-7.6h2.9v6.8c0,0.5,0.1,0.9,0.3,1.3c0.2,0.4,0.5,0.7,0.9,0.9c0.4,0.2,0.8,0.3,1.3,0.3
			c0.5,0,0.9-0.1,1.3-0.3c0.4-0.2,0.7-0.5,0.9-0.9c0.2-0.4,0.3-0.8,0.3-1.3v-6.8h2.9l0,12h-2.9l0-1.1c-0.4,0.4-0.9,0.8-1.5,1
			c-0.6,0.3-1.2,0.4-1.8,0.4c-0.9,0-1.7-0.2-2.4-0.6c-0.7-0.4-1.3-1-1.7-1.7C243.8,478.6,243.6,477.8,243.6,476.9z"/>
	</g>
	<g>
		<path d="M335,174c0.5,0,0.8,0.1,1.1,0.1c2.5,0.1,5.1,0.1,7.6,0.3c2.4,0.2,3.9,2.6,2.9,4.8c-0.6,1.3-1.6,2.1-3.1,2.1
			c-5.7-0.1-11.4-0.3-17.2-0.5c-1.9-0.1-3.2-1.7-3.1-3.8c0.1-4,0.2-8,0.4-12c0-1.5,0.1-2.9,0.1-4.4c0.1-2.1,1.6-3.6,3.5-3.5
			c2.1,0.1,3.4,1.6,3.3,3.8c-0.1,2.7-0.2,5.5-0.1,8.3c0.2-0.2,0.4-0.4,0.6-0.6c3.5-3.3,7.1-6.6,10.6-10c2-2,4.9-0.9,5.6,1.3
			c0.5,1.6-0.3,2.7-1.3,3.8c-3.4,3.2-6.9,6.5-10.3,9.7C335.5,173.4,335.3,173.7,335,174z"/>
	</g>
	<g>
		<path d="M322.7,201.6c-0.9,0-1.7-0.2-2.4-0.5s-1.4-0.8-2-1.4c-0.6-0.6-1-1.3-1.3-2.1c-0.3-0.8-0.5-1.6-0.5-2.5
			c0-0.9,0.2-1.8,0.5-2.6s0.8-1.5,1.4-2.1s1.2-1,2-1.4c0.7-0.3,1.5-0.5,2.4-0.5c0.9,0,1.8,0.2,2.7,0.6c0.9,0.4,1.6,1.1,2.2,1.9
			L326,192c-0.4-0.5-0.9-0.9-1.5-1.2s-1.2-0.4-1.8-0.4c-0.6,0-1.1,0.1-1.7,0.4c-0.5,0.2-1,0.6-1.4,1c-0.4,0.4-0.7,0.9-0.9,1.5
			c-0.2,0.6-0.3,1.2-0.3,1.8c0,0.6,0.1,1.2,0.3,1.8c0.2,0.6,0.5,1.1,0.9,1.5c0.4,0.4,0.9,0.8,1.4,1c0.5,0.2,1.1,0.4,1.7,0.4
			c0.4,0,0.9-0.1,1.3-0.2s0.8-0.3,1.1-0.6c0.4-0.3,0.7-0.6,0.9-1c0.3-0.4,0.5-0.8,0.6-1.2h-2.7V195h4.9c0,0.9-0.1,1.7-0.5,2.5
			c-0.3,0.8-0.8,1.5-1.3,2.1s-1.2,1.1-2,1.4C324.4,201.4,323.6,201.6,322.7,201.6z"/>
		<path d="M331.6,191c-0.3,0-0.5-0.1-0.7-0.3c-0.2-0.2-0.3-0.4-0.3-0.7c0-0.3,0.1-0.5,0.3-0.7c0.2-0.2,0.4-0.3,0.7-0.3
			c0.3,0,0.5,0.1,0.7,0.3c0.2,0.2,0.3,0.4,0.3,0.7c0,0.3-0.1,0.5-0.3,0.7C332.1,190.9,331.8,191,331.6,191z M330.6,192.3h1.9v9h-1.9
			V192.3z"/>
		<path d="M334.6,201.3v-9h1.9v1c0.3-0.4,0.7-0.7,1.2-0.9c0.5-0.2,0.9-0.3,1.5-0.3c0.3,0,0.7,0,1,0.1l-0.7,1.9
			c-0.2-0.1-0.5-0.1-0.7-0.1c-0.4,0-0.8,0.1-1.1,0.3c-0.3,0.2-0.6,0.5-0.8,0.8c-0.2,0.3-0.3,0.7-0.3,1.1v5.2H334.6z"/>
		<path d="M342.1,191c-0.3,0-0.5-0.1-0.7-0.3c-0.2-0.2-0.3-0.4-0.3-0.7c0-0.3,0.1-0.5,0.3-0.7c0.2-0.2,0.4-0.3,0.7-0.3
			c0.3,0,0.5,0.1,0.7,0.3c0.2,0.2,0.3,0.4,0.3,0.7c0,0.3-0.1,0.5-0.3,0.7C342.6,190.9,342.4,191,342.1,191z M341.1,192.3h1.9v9h-1.9
			V192.3z"/>
		<path d="M347.7,201.5c-0.5,0-0.9-0.1-1.4-0.3c-0.4-0.2-0.8-0.4-1.2-0.7c-0.3-0.3-0.6-0.6-0.8-1l1.6-0.7c0.1,0.2,0.2,0.3,0.4,0.5
			c0.2,0.2,0.4,0.3,0.7,0.4c0.3,0.1,0.5,0.1,0.8,0.1c0.3,0,0.5,0,0.8-0.1c0.2-0.1,0.4-0.2,0.6-0.4c0.2-0.2,0.2-0.4,0.2-0.6
			c0-0.3-0.1-0.5-0.3-0.6s-0.4-0.3-0.7-0.3c-0.3-0.1-0.5-0.2-0.8-0.2c-0.6-0.1-1.1-0.3-1.6-0.5c-0.5-0.2-0.9-0.5-1.2-0.9
			c-0.3-0.4-0.4-0.8-0.4-1.3c0-0.6,0.2-1.1,0.5-1.5c0.3-0.4,0.7-0.7,1.2-1s1-0.3,1.6-0.3c0.7,0,1.4,0.2,2,0.5
			c0.6,0.3,1.1,0.7,1.4,1.3l-1.5,0.9c-0.1-0.2-0.2-0.3-0.4-0.5c-0.2-0.1-0.4-0.3-0.6-0.3c-0.2-0.1-0.5-0.1-0.7-0.1
			c-0.3,0-0.6,0-0.9,0.1s-0.5,0.2-0.6,0.4c-0.2,0.2-0.2,0.4-0.2,0.7c0,0.3,0.1,0.5,0.3,0.6c0.2,0.1,0.4,0.2,0.7,0.3
			c0.3,0.1,0.6,0.2,0.9,0.3c0.5,0.2,1,0.4,1.5,0.6c0.5,0.2,0.8,0.5,1.1,0.9s0.4,0.8,0.4,1.3c0,0.6-0.2,1.1-0.5,1.5
			c-0.3,0.4-0.8,0.8-1.3,1C348.9,201.4,348.3,201.5,347.7,201.5z M348.4,204.7c-0.4,0.1-0.8,0.1-1.2-0.2c-0.4-0.2-0.6-0.5-0.7-0.9
			l1-0.3c0,0.1,0.1,0.2,0.2,0.3s0.2,0.1,0.4,0c0.1,0,0.2-0.1,0.3-0.2c0.1-0.1,0.1-0.2,0-0.4c0-0.1-0.1-0.2-0.2-0.3s-0.2-0.1-0.4-0.1
			l-1.1,0.1l1.2-2.1l0.9,0.5l-0.4,0.6c0.2,0.1,0.4,0.2,0.6,0.4c0.2,0.2,0.3,0.4,0.3,0.6c0.1,0.4,0.1,0.8-0.1,1.2
			C349.2,204.3,348.9,204.6,348.4,204.7z"/>
	</g>
</g>
<g id="f">
	<polygon id="block-f" display="none" fill="#D2CA29" points="294.8,405.5 341,388.4 356.9,429.5 369.8,422 377.6,447.2 
		382.2,444.7 386.7,461.6 342.3,480.6 333.4,464.6 341,462.1 329.4,437.4 317,446.2 307.4,422 300.6,422 	"/>
	<polygon fill="none" stroke="#000000" stroke-miterlimit="10" points="294.8,405.5 341,388.4 356.9,429.5 369.8,422 377.6,447.2 
		382.2,444.7 386.7,461.6 342.3,480.6 333.4,464.6 341,462.1 329.4,437.4 317,446.2 307.4,422 300.6,422 	"/>
	<g>
		<path d="M336,438v-16.8h9.9v2.9h-7v3.4h5.8v2.9H339v7.5H336z"/>
	</g>
</g>
<g id="a-b-c-e">
	<path id="block-a-b-c-e" display="none" fill="#D2CA29" d="M333.2,256.5l48.3-19.5l7.3,17.2l-5.1,1.3l7.1,16.7l-4,3.8l8.1,13.9
		l22.5-10.1l10.6,26l-67.5,29.8l-15.7-37.1l5.1-1.8L333.2,256.5z M442.6,383l-5.8,2.3l16.9,37.4l68.2-28.3l-12.1-28l-24,11.9
		l-7.1-15.7l4-3l-6.8-16.7l7.3-2l-7.6-17.2l-50,20L442.6,383z M525.9,474.2l-4.3,3l15.9,36.9l68.2-27.8l-11.4-28l-25.5,10.4
		l-6.3-15.4l3.8-3.5l-6.6-14.4l6.3-3l-7.6-17.2l-49.3,19.2L525.9,474.2z M410,579.1l69.5-27.8l-13.1-28.5l-25.5,9.3L436,519l4.8-1.8
		l-8.1-19.5l6.1-2.3l-8.8-16.2l-47.7,18.2l17.2,41.9l-4.5,1.5L410,579.1z"/>
	<polygon fill="none" stroke="#000000" stroke-miterlimit="10" points="333.2,256.5 381.4,237 388.8,254.2 383.7,255.5 390.8,272.1 
		386.7,275.9 394.8,289.8 417.3,279.7 427.9,305.7 360.5,335.6 344.8,298.4 349.8,296.6 	"/>
	<polygon fill="none" stroke="#000000" stroke-miterlimit="10" points="425.6,343.6 475.7,323.7 483.2,340.9 475.9,342.9 
		482.7,359.6 478.7,362.6 485.8,378.2 509.8,366.4 521.9,394.4 453.7,422.7 436.8,385.3 442.6,383 	"/>
	<polygon fill="none" stroke="#000000" stroke-miterlimit="10" points="509.3,434.3 558.5,415.1 566.1,432.3 559.8,435.3 
		566.4,449.7 562.6,453.3 568.9,468.7 594.4,458.3 605.8,486.4 537.6,514.2 521.6,477.3 525.9,474.2 	"/>
	<polygon fill="none" stroke="#000000" stroke-miterlimit="10" points="410,579.1 479.4,551.3 466.3,522.8 440.8,532.1 436,519 
		440.8,517.2 432.7,497.7 438.8,495.5 429.9,479.3 382.2,497.5 399.4,539.4 394.8,540.9 	"/>
	<g>
		<path d="M371.3,280.1h3.4l6.1,16.8h-3.1l-1.1-3h-7.2l-1.1,3h-3.1L371.3,280.1z M370.5,291h5.1l-2.5-6.9L370.5,291z"/>
	</g>
	<g>
		<path d="M458.4,384v-16.8h6.1c0.9,0,1.7,0.2,2.4,0.5s1.3,0.9,1.7,1.6c0.4,0.7,0.6,1.5,0.6,2.4c0,0.4-0.1,0.8-0.2,1.2
			s-0.3,0.8-0.6,1.1s-0.6,0.6-1,0.7c0.5,0.1,0.9,0.4,1.3,0.7s0.6,0.7,0.8,1.2c0.2,0.5,0.3,0.9,0.4,1.4c0.1,0.5,0.1,0.9,0.1,1.3
			c0,0.9-0.2,1.7-0.7,2.4c-0.4,0.7-1,1.2-1.8,1.7c-0.7,0.4-1.6,0.6-2.5,0.6H458.4z M461.3,373.7h2.9c0.6,0,1.1-0.2,1.5-0.6
			c0.4-0.4,0.6-0.9,0.6-1.5c0-0.6-0.2-1.1-0.6-1.5c-0.4-0.3-0.9-0.5-1.5-0.5h-2.9V373.7z M461.3,381.5h3.6c0.5,0,0.9-0.1,1.3-0.3
			c0.4-0.2,0.7-0.6,0.9-1c0.2-0.4,0.3-0.9,0.3-1.4c0-0.4-0.1-0.9-0.3-1.3c-0.2-0.4-0.5-0.7-0.9-1c-0.4-0.2-0.8-0.4-1.3-0.4h-3.6
			V381.5z"/>
	</g>
	<g>
		<path d="M547.7,475.9c-1.1,0-2.2-0.2-3.2-0.7c-1-0.5-1.9-1.1-2.6-1.9s-1.3-1.7-1.8-2.8c-0.4-1.1-0.6-2.2-0.6-3.4
			c0-1.2,0.2-2.3,0.6-3.4c0.4-1.1,1-2,1.8-2.8s1.6-1.4,2.6-1.9c1-0.5,2.1-0.7,3.2-0.7c1.4,0,2.6,0.3,3.8,0.9
			c1.1,0.6,2.1,1.5,2.8,2.5l-2.6,1.4c-0.5-0.6-1.1-1.1-1.8-1.4c-0.7-0.4-1.4-0.5-2.2-0.5c-0.7,0-1.4,0.2-2.1,0.5
			c-0.6,0.3-1.2,0.7-1.7,1.2c-0.5,0.5-0.9,1.1-1.1,1.8c-0.3,0.7-0.4,1.4-0.4,2.2c0,0.8,0.1,1.5,0.4,2.2c0.3,0.7,0.7,1.3,1.1,1.8
			c0.5,0.5,1.1,0.9,1.7,1.2c0.6,0.3,1.3,0.5,2.1,0.5c0.8,0,1.5-0.2,2.2-0.5c0.7-0.4,1.3-0.8,1.7-1.4l2.6,1.4c-0.8,1-1.7,1.9-2.8,2.5
			C550.3,475.6,549.1,475.9,547.7,475.9z"/>
	</g>
	<g>
		<path d="M416.3,539.6v-16.8h10.5v2.9h-7.6v3.4h6v2.9h-6v4.6h7.6v2.9H416.3z"/>
	</g>
</g>
<g id="g">
	<polygon id="block-g" display="none" fill="#D2CA29" points="197.5,256.5 242,278.2 235.4,296.4 229.3,293.4 191.4,368.6 
		153.8,348.9 180.8,297.4 176.5,295.6 182.4,283.3 187.4,284.8 194,271.6 188.9,269.6 	"/>
	<polygon fill="none" stroke="#000000" stroke-miterlimit="10" points="197.5,256.5 242,278.2 235.4,296.4 229.3,293.4 191.4,368.6 
		153.8,348.9 180.8,297.4 176.5,295.6 182.4,283.3 187.4,284.8 194,271.6 188.9,269.6 	"/>
	<g>
		<path d="M195.8,319.2c-1.2,0-2.3-0.2-3.3-0.7s-1.9-1.1-2.6-1.9s-1.3-1.7-1.7-2.8s-0.6-2.2-0.6-3.4c0-1.3,0.2-2.4,0.7-3.5
			c0.5-1.1,1.1-2,1.9-2.7c0.8-0.8,1.7-1.4,2.7-1.8c1-0.4,2-0.6,3.1-0.6c1.2,0,2.4,0.3,3.5,0.8c1.1,0.6,2.1,1.4,3,2.6l-2.6,1.4
			c-0.5-0.7-1.2-1.1-1.8-1.5c-0.7-0.3-1.4-0.5-2.1-0.5c-0.7,0-1.4,0.1-2,0.4s-1.2,0.7-1.7,1.2c-0.5,0.5-0.9,1.1-1.2,1.8
			c-0.3,0.7-0.4,1.5-0.4,2.3c0,0.8,0.1,1.5,0.4,2.2c0.3,0.7,0.7,1.3,1.2,1.8c0.5,0.5,1.1,0.9,1.7,1.2c0.6,0.3,1.3,0.4,2.1,0.4
			c0.5,0,1-0.1,1.5-0.2c0.5-0.2,0.9-0.4,1.3-0.7s0.8-0.7,1.1-1.1s0.6-0.9,0.8-1.4h-3.1v-2.6h6.5c0,1.2-0.2,2.4-0.6,3.4
			c-0.4,1.1-1,2-1.8,2.8c-0.8,0.8-1.6,1.5-2.7,1.9S196.9,319.2,195.8,319.2z"/>
	</g>
</g>
<g id="d">
	<polygon id="block-d" display="none" fill="#D2CA29" points="554,547.3 594.9,529.8 595.9,524.3 604.2,521.5 607.8,526 
		624.2,516.9 630.3,531.6 627,533.6 636.8,558.1 568.1,585.7 	"/>
	<polygon fill="none" stroke="#000000" stroke-miterlimit="10" points="554,547.3 594.9,529.8 595.9,524.3 604.2,521.5 607.8,526 
		624.2,516.9 630.3,531.6 627,533.6 636.8,558.1 568.1,585.7 	"/>
	<g>
		<path d="M588.8,561.3v-16.8h5.6c1.2,0,2.2,0.2,3.3,0.7c1,0.4,1.9,1,2.7,1.8c0.8,0.8,1.4,1.7,1.8,2.7c0.4,1,0.7,2.1,0.7,3.3
			s-0.2,2.2-0.7,3.3c-0.4,1-1,1.9-1.8,2.7c-0.8,0.8-1.7,1.4-2.7,1.8c-1,0.4-2.1,0.7-3.3,0.7H588.8z M591.7,558.4h2.6
			c0.7,0,1.4-0.1,2.1-0.4c0.7-0.3,1.2-0.7,1.7-1.2s0.9-1.1,1.2-1.7s0.4-1.4,0.4-2.1c0-0.8-0.1-1.5-0.4-2.1c-0.3-0.7-0.7-1.2-1.2-1.7
			c-0.5-0.5-1.1-0.9-1.7-1.2s-1.4-0.4-2.1-0.4h-2.6V558.4z"/>
	</g>
</g>
<g id="h_00000018224743170912802180000017000818259293492138_">
	<polygon id="block-h" display="none" fill="#D2CA29" points="205.1,224.6 226.8,186.8 231.9,187.3 238.4,175.1 232.9,171.1 
		250.1,136.7 256.1,140.8 261.7,126.6 296.5,143.8 291,159.5 295.5,161 278.9,193.8 271.3,192.3 254.6,228.2 257.6,230.7 
		250.1,247.9 	"/>
	<polygon fill="none" stroke="#000000" stroke-miterlimit="10" points="205.1,224.6 226.8,186.8 231.9,187.3 238.4,175.1 
		232.9,171.1 250.1,136.7 256.1,140.8 261.7,126.6 296.5,143.8 291,159.5 295.5,161 278.9,193.8 271.3,192.3 254.6,228.2 
		257.6,230.7 250.1,247.9 	"/>
	<g>
		<path d="M257.1,174.2h2.9V191h-2.9v-7.5h-7v7.5h-2.9v-16.8h2.9v6.3h7V174.2z"/>
	</g>
</g>
</svg>
